<svg xmlns="http://www.w3.org/2000/svg" xmlns:xlink="http://www.w3.org/1999/xlink" width="500" zoomAndPan="magnify" viewBox="0 0 375 374.999991" height="500" preserveAspectRatio="xMidYMid meet" version="1.0"><defs><g/><clipPath id="e51d03228f"><path d="M 98.085938 89.042969 L 295.335938 89.042969 L 295.335938 286.292969 L 98.085938 286.292969 Z M 98.085938 89.042969 " clip-rule="nonzero"/></clipPath></defs><g clip-path="url(#e51d03228f)"><path fill="#000" d="M 140.472656 89.042969 L 295.339844 89.042969 L 295.339844 286.296875 L 98.085938 286.296875 L 98.085938 256.496094 C 98.597656 257.152344 99.117188 257.808594 99.640625 258.457031 L 99.640625 284.738281 L 293.777344 284.738281 L 293.777344 90.597656 L 139.570312 90.597656 C 139.867188 90.097656 140.15625 89.597656 140.445312 89.09375 Z M 140.472656 89.042969 " fill-opacity="1" fill-rule="evenodd"/></g><g fill="#000" fill-opacity="1"><g transform="translate(90.536576, 203.554506)"><g><path d="M 37.394531 -0.0585938 L 67.527344 -77.054688 C 70.328125 -84.140625 73.246094 -85.390625 73.246094 -85.390625 L 66.933594 -85.390625 C 66.933594 -85.390625 68.957031 -84.140625 66.15625 -77.054688 L 40.3125 -11.015625 L 14.46875 -77.054688 C 11.730469 -84.140625 13.695312 -85.390625 13.695312 -85.390625 L 1.488281 -85.390625 C 1.488281 -85.390625 4.464844 -84.140625 7.207031 -77.054688 Z M 37.394531 -0.0585938 "/></g></g></g><g fill="#000" fill-opacity="1"><g transform="translate(180.742263, 203.554506)"><g><path d="M 20.484375 -85.332031 C 18.636719 -85.332031 1.488281 -85.332031 1.488281 -85.332031 C 1.488281 -85.332031 3.988281 -84.558594 3.988281 -77.472656 L 3.988281 -8.335938 C 3.988281 -1.25 1.488281 -0.0585938 1.488281 -0.0585938 C 1.488281 -0.0585938 19.292969 -0.0585938 20.960938 -0.0585938 C 52.164062 -0.0585938 65.441406 -19.175781 65.441406 -42.636719 C 65.441406 -66.097656 53.535156 -85.332031 20.484375 -85.332031 Z M 18.699219 -2.679688 L 11.96875 -2.679688 C 11.550781 -3.871094 11.253906 -5.714844 11.253906 -8.335938 L 11.253906 -77.53125 C 11.253906 -80.152344 11.550781 -81.878906 11.96875 -83.070312 L 18.699219 -83.070312 C 49.902344 -83.070312 57.878906 -64.847656 57.878906 -42.816406 C 57.878906 -20.722656 49.542969 -2.679688 18.699219 -2.679688 Z M 18.699219 -2.679688 "/></g></g></g><g fill="#000" fill-opacity="1"><g transform="translate(89.688683, 246.542636)"><g><path d="M 54.902344 -45.515625 C 54.726562 -45.515625 54.582031 -45.445312 54.441406 -45.335938 C 54.261719 -45.230469 54.15625 -45.054688 54.121094 -44.875 C 52.023438 -37.230469 49.640625 -30.652344 47.042969 -25.140625 C 44.414062 -19.628906 41.746094 -15.113281 39.042969 -11.628906 C 36.304688 -8.109375 33.78125 -5.546875 31.433594 -3.875 C 29.085938 -2.203125 27.167969 -1.386719 25.710938 -1.386719 C 24.640625 -1.386719 23.96875 -1.921875 23.648438 -2.988281 C 23.328125 -4.054688 23.292969 -5.441406 23.503906 -7.148438 C 23.71875 -8.855469 24.074219 -10.738281 24.570312 -12.765625 C 25.035156 -14.792969 25.566406 -16.785156 26.136719 -18.738281 C 26.242188 -19.128906 26.347656 -19.523438 26.457031 -19.914062 C 27.417969 -23.363281 28.234375 -26.667969 28.945312 -29.90625 C 29.65625 -33.140625 29.976562 -35.949219 29.941406 -38.402344 C 29.90625 -40.855469 29.195312 -42.636719 27.84375 -43.738281 C 25.992188 -45.160156 22.898438 -44.945312 18.5625 -43.0625 C 13.300781 -40.644531 8.960938 -37.445312 5.546875 -33.460938 C 2.097656 -29.476562 0.285156 -25.886719 0.0703125 -22.722656 C 0.0351562 -21.300781 0.390625 -20.199219 1.210938 -19.449219 C 1.992188 -18.667969 3.128906 -18.277344 4.621094 -18.277344 C 4.800781 -18.277344 4.941406 -18.347656 5.121094 -18.492188 C 5.261719 -18.597656 5.371094 -18.738281 5.40625 -18.917969 C 5.441406 -19.09375 5.441406 -19.273438 5.371094 -19.378906 C 5.261719 -19.488281 5.121094 -19.558594 4.941406 -19.558594 C 2.523438 -19.558594 1.316406 -20.695312 1.351562 -23.007812 C 1.457031 -24.679688 2.203125 -26.703125 3.628906 -29.085938 C 5.050781 -31.433594 7.039062 -33.78125 9.636719 -36.09375 C 12.230469 -38.402344 15.289062 -40.359375 18.8125 -41.925781 C 22.6875 -43.59375 25.355469 -43.84375 26.882812 -42.671875 C 28.054688 -41.675781 28.660156 -40.003906 28.660156 -37.621094 C 28.625 -35.238281 28.269531 -32.464844 27.59375 -29.371094 C 26.882812 -26.242188 26.066406 -23.078125 25.175781 -19.914062 C 25.070312 -19.449219 24.925781 -18.988281 24.785156 -18.527344 C 24.214844 -16.429688 23.683594 -14.292969 23.183594 -12.160156 C 22.652344 -10.027344 22.332031 -8.070312 22.152344 -6.257812 C 21.976562 -4.445312 22.152344 -2.953125 22.617188 -1.8125 C 23.078125 -0.675781 24.003906 -0.105469 25.390625 -0.105469 C 27.203125 -0.105469 29.371094 -1.03125 31.96875 -2.84375 C 34.527344 -4.660156 37.230469 -7.394531 40.039062 -11.058594 C 42.847656 -14.722656 45.585938 -19.378906 48.253906 -25.035156 C 50.921875 -30.652344 53.265625 -37.265625 55.367188 -44.875 C 55.402344 -45.054688 55.402344 -45.230469 55.328125 -45.335938 C 55.222656 -45.445312 55.082031 -45.515625 54.902344 -45.515625 Z M 54.902344 -45.515625 "/></g></g></g><g fill="#000" fill-opacity="1"><g transform="translate(140.214883, 246.542636)"><g><path d="M 3.269531 -14.648438 C 3.058594 -14.648438 2.84375 -14.648438 2.667969 -14.6875 C 1.457031 -14.757812 0.605469 -15.21875 0.105469 -16.074219 C -0.320312 -16.890625 -0.460938 -17.816406 -0.285156 -18.773438 C -0.140625 -19.734375 0.0351562 -20.445312 0.285156 -20.980469 C 0.355469 -21.15625 0.460938 -21.300781 0.640625 -21.40625 C 0.78125 -21.511719 0.925781 -21.546875 1.101562 -21.511719 C 1.28125 -21.476562 1.421875 -21.40625 1.492188 -21.300781 C 1.527344 -21.15625 1.527344 -21.015625 1.492188 -20.835938 C 0.890625 -19.128906 0.816406 -17.816406 1.28125 -16.890625 C 1.601562 -16.285156 2.203125 -15.964844 3.09375 -15.929688 C 5.652344 -15.644531 8.996094 -17.03125 13.15625 -20.125 C 13.335938 -20.234375 13.476562 -20.304688 13.65625 -20.304688 C 13.832031 -20.304688 13.9375 -20.234375 14.046875 -20.089844 C 14.117188 -19.949219 14.117188 -19.804688 14.082031 -19.628906 C 14.046875 -19.449219 13.9375 -19.308594 13.761719 -19.203125 C 9.707031 -16.179688 6.222656 -14.648438 3.269531 -14.648438 Z M 2.347656 -23.253906 C 2.277344 -23.007812 2.167969 -22.828125 1.992188 -22.6875 C 1.8125 -22.507812 1.601562 -22.4375 1.386719 -22.4375 C 1.210938 -22.4375 1.066406 -22.507812 0.960938 -22.6875 C 0.851562 -22.828125 0.851562 -23.007812 0.890625 -23.253906 C 0.960938 -23.46875 1.101562 -23.648438 1.28125 -23.824219 C 1.457031 -23.96875 1.636719 -24.039062 1.847656 -24.039062 C 2.027344 -24.039062 2.167969 -23.96875 2.277344 -23.824219 C 2.382812 -23.648438 2.382812 -23.46875 2.347656 -23.253906 Z M 2.347656 -23.253906 "/></g></g></g><g fill="#000" fill-opacity="1"><g transform="translate(153.228668, 246.542636)"><g><path d="M 7.394531 -21.511719 C 7.75 -21.511719 7.929688 -21.371094 7.929688 -21.050781 L 7.859375 -20.625 C 7.859375 -19.734375 8.960938 -19.167969 11.128906 -18.953125 L 12.410156 -18.917969 C 14.6875 -18.917969 17.210938 -19.308594 19.984375 -20.125 L 20.160156 -20.160156 C 20.445312 -20.160156 20.625 -20.019531 20.660156 -19.734375 C 20.660156 -19.34375 20.445312 -19.09375 20.054688 -18.917969 C 17.105469 -18.0625 14.4375 -17.636719 12.054688 -17.636719 C 10.0625 -17.636719 8.605469 -17.921875 7.714844 -18.457031 C 7.46875 -18.597656 7.253906 -18.738281 7.078125 -18.917969 C 6.648438 -18.0625 6.082031 -17.28125 5.40625 -16.570312 C 4.230469 -15.253906 3.128906 -14.613281 2.167969 -14.613281 C 1.421875 -14.613281 0.890625 -14.933594 0.535156 -15.539062 C 0.140625 -16.144531 -0.0351562 -16.75 -0.0703125 -17.316406 C -0.105469 -17.851562 -0.105469 -18.207031 -0.105469 -18.3125 C -0.105469 -19.128906 0 -19.984375 0.25 -20.875 C 0.355469 -21.300781 0.640625 -21.511719 1.03125 -21.511719 C 1.351562 -21.511719 1.527344 -21.371094 1.527344 -21.085938 L 1.492188 -20.875 C 1.316406 -20.054688 1.210938 -19.34375 1.210938 -18.667969 C 1.210938 -18.207031 1.246094 -17.742188 1.351562 -17.351562 C 1.601562 -16.355469 1.957031 -15.859375 2.488281 -15.859375 C 3.023438 -15.859375 3.734375 -16.355469 4.660156 -17.386719 C 5.511719 -18.347656 6.152344 -19.523438 6.613281 -20.910156 C 6.757812 -21.300781 7.003906 -21.511719 7.394531 -21.511719 Z M 7.394531 -21.511719 "/></g></g></g><g fill="#000" fill-opacity="1"><g transform="translate(172.71379, 246.542636)"><g><path d="M 1.707031 -19.34375 C 3.664062 -19.09375 5.015625 -19.238281 5.6875 -19.734375 C 5.796875 -19.804688 5.867188 -19.878906 5.902344 -19.914062 C 5.9375 -19.949219 5.9375 -19.949219 5.9375 -19.984375 C 5.9375 -20.019531 5.867188 -20.089844 5.726562 -20.160156 C 5.582031 -20.234375 5.332031 -20.269531 4.976562 -20.269531 C 4.230469 -20.269531 3.589844 -20.199219 3.058594 -20.019531 C 2.523438 -19.84375 2.0625 -19.59375 1.707031 -19.34375 Z M 3.984375 -14.578125 L 3.554688 -14.578125 C 0.25 -14.6875 -1.171875 -15.789062 -0.640625 -17.957031 C -0.535156 -18.457031 -0.214844 -18.988281 0.25 -19.523438 C 0.710938 -20.054688 1.386719 -20.554688 2.238281 -20.945312 C 3.058594 -21.335938 4.089844 -21.511719 5.296875 -21.511719 C 6.402344 -21.511719 7.039062 -21.191406 7.21875 -20.519531 C 7.324219 -20.054688 7.148438 -19.59375 6.683594 -19.128906 C 6.222656 -18.667969 5.511719 -18.347656 4.515625 -18.136719 C 3.484375 -17.886719 2.203125 -17.921875 0.675781 -18.171875 L 0.605469 -17.957031 C 0.425781 -17.140625 0.710938 -16.570312 1.457031 -16.285156 C 2.167969 -15.964844 2.988281 -15.824219 3.910156 -15.824219 C 8.109375 -15.679688 12.871094 -17.03125 18.171875 -19.84375 C 18.347656 -19.949219 18.492188 -19.949219 18.667969 -19.914062 C 18.8125 -19.878906 18.917969 -19.769531 18.953125 -19.628906 C 18.988281 -19.449219 18.988281 -19.308594 18.917969 -19.167969 C 18.8125 -18.988281 18.703125 -18.882812 18.527344 -18.773438 C 13.371094 -15.964844 8.5 -14.578125 3.984375 -14.578125 Z M 3.984375 -14.578125 "/></g></g></g><g fill="#000" fill-opacity="1"><g transform="translate(190.598855, 246.542636)"><g><path d="M 2.3125 -15.539062 C 1.527344 -15.824219 0.960938 -16.214844 0.570312 -16.710938 C -0.390625 -13.015625 -1.101562 -10.277344 -1.601562 -8.464844 C -1.636719 -8.285156 -1.742188 -8.109375 -1.882812 -8 C -2.0625 -7.894531 -2.203125 -7.824219 -2.382812 -7.824219 C -2.558594 -7.824219 -2.667969 -7.894531 -2.773438 -8 C -2.878906 -8.109375 -2.878906 -8.285156 -2.84375 -8.464844 C -2.3125 -10.453125 -1.527344 -13.546875 -0.425781 -17.78125 C 1.386719 -24.925781 3.484375 -32.964844 5.867188 -41.960938 C 5.9375 -42.136719 6.046875 -42.28125 6.1875 -42.386719 C 6.328125 -42.492188 6.507812 -42.5625 6.683594 -42.5625 C 6.863281 -42.5625 6.96875 -42.492188 7.078125 -42.386719 C 7.183594 -42.28125 7.183594 -42.136719 7.148438 -41.960938 C 5.191406 -34.632812 3.414062 -27.914062 1.847656 -21.796875 C 2.878906 -22.617188 4.230469 -23.292969 5.867188 -23.859375 C 7.539062 -24.394531 9.316406 -24.535156 11.128906 -24.214844 C 11.308594 -24.179688 11.414062 -24.109375 11.484375 -23.96875 C 11.519531 -23.824219 11.519531 -23.683594 11.449219 -23.503906 C 11.34375 -23.328125 11.238281 -23.183594 11.058594 -23.078125 C 10.882812 -22.972656 10.738281 -22.9375 10.5625 -22.972656 C 9.03125 -23.21875 7.539062 -23.148438 6.082031 -22.6875 C 4.585938 -22.222656 3.378906 -21.621094 2.453125 -20.835938 C 2.203125 -20.625 1.921875 -20.339844 1.671875 -20.019531 C 1.386719 -19.664062 1.246094 -19.273438 1.210938 -18.847656 C 1.28125 -17.816406 1.957031 -17.066406 3.199219 -16.605469 C 4.445312 -16.144531 5.796875 -15.894531 7.324219 -15.894531 C 8.285156 -15.894531 9.351562 -16 10.597656 -16.179688 C 11.804688 -16.355469 13.15625 -16.710938 14.6875 -17.316406 C 16.214844 -17.921875 17.886719 -18.8125 19.769531 -19.984375 C 19.949219 -20.089844 20.125 -20.125 20.304688 -20.089844 C 20.445312 -20.054688 20.554688 -19.984375 20.625 -19.84375 C 20.695312 -19.699219 20.695312 -19.558594 20.660156 -19.378906 C 20.589844 -19.203125 20.445312 -19.09375 20.269531 -18.988281 C 18.242188 -17.707031 16.429688 -16.75 14.757812 -16.144531 C 13.085938 -15.503906 11.628906 -15.113281 10.347656 -14.933594 C 9.03125 -14.757812 7.929688 -14.648438 6.96875 -14.648438 C 5.371094 -14.648438 3.804688 -14.933594 2.3125 -15.539062 Z M 2.3125 -15.539062 "/></g></g></g><g fill="#000" fill-opacity="1"><g transform="translate(210.155091, 246.542636)"><g><path d="M 37.976562 -35.0625 C 38.15625 -38.722656 37.550781 -41.390625 36.09375 -43.132812 C 34.632812 -44.875 32.5 -45.480469 29.691406 -45.019531 C 23.042969 -43.667969 16.535156 -37.015625 10.167969 -25.070312 C 10.382812 -26.953125 10.953125 -29.761719 11.914062 -33.53125 C 12.871094 -37.300781 13.796875 -40.929688 14.722656 -44.414062 C 14.757812 -44.589844 14.757812 -44.734375 14.6875 -44.839844 C 14.578125 -44.945312 14.4375 -45.019531 14.257812 -45.019531 C 14.082031 -45.019531 13.9375 -44.945312 13.796875 -44.839844 C 13.617188 -44.734375 13.511719 -44.589844 13.476562 -44.414062 C 11.875 -38.511719 10.738281 -33.996094 9.992188 -30.867188 C 9.246094 -27.699219 8.890625 -25.566406 8.890625 -24.429688 C 8.890625 -23.292969 9.175781 -22.722656 9.707031 -22.722656 L 9.742188 -22.722656 C 9.992188 -22.722656 10.207031 -22.792969 10.347656 -22.972656 C 10.453125 -23.148438 10.632812 -23.398438 10.808594 -23.789062 C 17.03125 -35.808594 23.292969 -42.457031 29.621094 -43.773438 C 31.859375 -44.09375 33.53125 -43.738281 34.5625 -42.707031 C 35.59375 -41.640625 36.234375 -40.324219 36.484375 -38.796875 C 36.734375 -37.265625 36.804688 -35.914062 36.695312 -34.8125 C 36.449219 -30.9375 35.308594 -26.703125 33.210938 -22.082031 C 31.113281 -17.460938 28.304688 -13.300781 24.75 -9.566406 C 21.15625 -5.832031 17.03125 -3.34375 12.375 -2.167969 C 7.003906 -1.066406 3.628906 -2.238281 2.277344 -5.761719 C 1.671875 -7.574219 1.742188 -9.566406 2.488281 -11.734375 C 3.199219 -13.902344 4.445312 -15.789062 6.1875 -17.425781 C 6.933594 -18.097656 7.929688 -18.773438 9.246094 -19.414062 C 10.5625 -20.054688 12.125 -20.410156 13.976562 -20.480469 C 15.824219 -20.519531 17.921875 -20.019531 20.304688 -18.988281 C 20.445312 -18.917969 20.625 -18.917969 20.800781 -18.988281 C 20.980469 -19.058594 21.121094 -19.167969 21.230469 -19.34375 C 21.335938 -19.523438 21.371094 -19.664062 21.335938 -19.84375 C 21.300781 -19.984375 21.230469 -20.089844 21.085938 -20.160156 C 15.148438 -22.722656 9.957031 -22.082031 5.441406 -18.207031 C 3.484375 -16.394531 2.0625 -14.257812 1.246094 -11.839844 C 0.425781 -9.386719 0.355469 -7.148438 1.03125 -5.085938 C 1.566406 -3.554688 2.453125 -2.417969 3.734375 -1.671875 C 5.015625 -0.890625 6.613281 -0.496094 8.5 -0.496094 C 9.671875 -0.496094 10.953125 -0.640625 12.339844 -0.960938 C 19.238281 -2.632812 25.28125 -7.253906 30.507812 -14.863281 C 34.953125 -21.726562 37.445312 -28.445312 37.976562 -35.0625 Z M 37.976562 -35.0625 "/></g></g></g><g fill="#000" fill-opacity="1"><g transform="translate(248.414198, 246.542636)"><g><path d="M -0.214844 -14.578125 C -0.320312 -14.578125 -0.425781 -14.613281 -0.496094 -14.648438 C -0.640625 -14.722656 -0.710938 -14.898438 -0.746094 -15.21875 C -0.78125 -15.503906 -0.746094 -16.039062 -0.605469 -16.785156 C -0.460938 -17.53125 -0.214844 -18.632812 0.140625 -20.089844 C 0.460938 -21.546875 0.960938 -23.433594 1.601562 -25.78125 C 2.203125 -28.128906 2.988281 -31.042969 3.945312 -34.492188 C 4.585938 -36.910156 5.191406 -39.1875 5.796875 -41.355469 C 5.832031 -41.53125 5.9375 -41.675781 6.117188 -41.78125 C 6.257812 -41.886719 6.402344 -41.960938 6.578125 -41.960938 C 6.757812 -41.960938 6.898438 -41.886719 7.003906 -41.78125 C 7.078125 -41.675781 7.078125 -41.53125 7.039062 -41.355469 C 6.472656 -39.1875 5.867188 -36.910156 5.191406 -34.492188 C 4.230469 -30.972656 3.269531 -27.417969 2.3125 -23.824219 C 1.351562 -20.234375 0.78125 -17.671875 0.535156 -16.214844 C 0.675781 -16.320312 0.816406 -16.394531 0.925781 -16.464844 C 1.957031 -17.175781 3.09375 -17.921875 4.339844 -18.703125 C 5.582031 -19.449219 6.792969 -20.125 8 -20.695312 C 9.175781 -21.265625 10.207031 -21.546875 11.023438 -21.546875 C 11.519531 -21.546875 11.875 -21.40625 12.125 -21.15625 C 12.339844 -20.875 12.480469 -20.519531 12.589844 -20.125 C 12.660156 -19.699219 12.695312 -19.273438 12.730469 -18.847656 C 12.765625 -17.957031 12.90625 -17.210938 13.15625 -16.675781 C 13.40625 -16.144531 13.976562 -15.859375 14.863281 -15.859375 C 16.039062 -15.859375 17.210938 -16.074219 18.457031 -16.535156 C 19.664062 -16.960938 20.835938 -17.496094 21.941406 -18.171875 C 23.042969 -18.8125 24.074219 -19.449219 24.960938 -20.125 C 25.140625 -20.234375 25.28125 -20.304688 25.460938 -20.304688 C 25.636719 -20.304688 25.746094 -20.234375 25.851562 -20.089844 C 25.921875 -19.949219 25.921875 -19.804688 25.886719 -19.628906 C 25.851562 -19.449219 25.746094 -19.308594 25.566406 -19.203125 C 24.605469 -18.492188 23.503906 -17.78125 22.296875 -17.105469 C 21.085938 -16.394531 19.804688 -15.789062 18.492188 -15.324219 C 17.140625 -14.863281 15.824219 -14.613281 14.507812 -14.613281 C 13.546875 -14.613281 12.871094 -14.828125 12.480469 -15.253906 C 12.054688 -15.644531 11.769531 -16.144531 11.664062 -16.75 C 11.519531 -17.316406 11.449219 -17.886719 11.414062 -18.457031 C 11.378906 -19.058594 11.34375 -19.523438 11.238281 -19.84375 C 11.128906 -20.125 10.953125 -20.269531 10.667969 -20.269531 C 9.992188 -20.269531 9.101562 -19.984375 8 -19.449219 C 6.898438 -18.917969 5.761719 -18.277344 4.585938 -17.53125 C 3.414062 -16.785156 2.382812 -16.109375 1.457031 -15.503906 C 0.996094 -15.21875 0.605469 -14.96875 0.285156 -14.722656 C 0.105469 -14.613281 -0.0703125 -14.578125 -0.214844 -14.578125 Z M -0.214844 -14.578125 "/></g></g></g><g fill="#000" fill-opacity="1"><g transform="translate(273.197281, 246.542636)"><g><path d="M 3.269531 -14.648438 C 3.058594 -14.648438 2.84375 -14.648438 2.667969 -14.6875 C 1.457031 -14.757812 0.605469 -15.21875 0.105469 -16.074219 C -0.320312 -16.890625 -0.460938 -17.816406 -0.285156 -18.773438 C -0.140625 -19.734375 0.0351562 -20.445312 0.285156 -20.980469 C 0.355469 -21.15625 0.460938 -21.300781 0.640625 -21.40625 C 0.78125 -21.511719 0.925781 -21.546875 1.101562 -21.511719 C 1.28125 -21.476562 1.421875 -21.40625 1.492188 -21.300781 C 1.527344 -21.15625 1.527344 -21.015625 1.492188 -20.835938 C 0.890625 -19.128906 0.816406 -17.816406 1.28125 -16.890625 C 1.601562 -16.285156 2.203125 -15.964844 3.09375 -15.929688 C 5.652344 -15.644531 8.996094 -17.03125 13.15625 -20.125 C 13.335938 -20.234375 13.476562 -20.304688 13.65625 -20.304688 C 13.832031 -20.304688 13.9375 -20.234375 14.046875 -20.089844 C 14.117188 -19.949219 14.117188 -19.804688 14.082031 -19.628906 C 14.046875 -19.449219 13.9375 -19.308594 13.761719 -19.203125 C 9.707031 -16.179688 6.222656 -14.648438 3.269531 -14.648438 Z M 2.347656 -23.253906 C 2.277344 -23.007812 2.167969 -22.828125 1.992188 -22.6875 C 1.8125 -22.507812 1.601562 -22.4375 1.386719 -22.4375 C 1.210938 -22.4375 1.066406 -22.507812 0.960938 -22.6875 C 0.851562 -22.828125 0.851562 -23.007812 0.890625 -23.253906 C 0.960938 -23.46875 1.101562 -23.648438 1.28125 -23.824219 C 1.457031 -23.96875 1.636719 -24.039062 1.847656 -24.039062 C 2.027344 -24.039062 2.167969 -23.96875 2.277344 -23.824219 C 2.382812 -23.648438 2.382812 -23.46875 2.347656 -23.253906 Z M 2.347656 -23.253906 "/></g></g></g><g fill="#000" fill-opacity="1"><g transform="translate(286.211055, 246.542636)"><g><path d="M -0.179688 -14.578125 C -0.285156 -14.578125 -0.390625 -14.613281 -0.496094 -14.648438 C -0.675781 -14.757812 -0.746094 -14.933594 -0.78125 -15.253906 C -0.816406 -15.539062 -0.746094 -16.074219 -0.570312 -16.855469 C -0.390625 -17.636719 -0.105469 -18.773438 0.285156 -20.269531 L 0.460938 -20.910156 C 0.535156 -21.085938 0.640625 -21.230469 0.816406 -21.335938 C 0.960938 -21.441406 1.101562 -21.511719 1.28125 -21.511719 C 1.457031 -21.511719 1.566406 -21.441406 1.671875 -21.335938 C 1.777344 -21.230469 1.777344 -21.085938 1.742188 -20.910156 L 1.566406 -20.269531 C 1.421875 -19.804688 1.246094 -19.167969 1.066406 -18.417969 C 0.890625 -17.671875 0.710938 -16.996094 0.605469 -16.394531 C 2.347656 -17.886719 3.945312 -19.128906 5.332031 -20.089844 C 6.71875 -21.050781 7.894531 -21.511719 8.890625 -21.511719 C 9.566406 -21.511719 9.992188 -21.300781 10.207031 -20.910156 C 10.382812 -20.480469 10.453125 -19.984375 10.417969 -19.378906 C 10.382812 -18.773438 10.277344 -18.171875 10.167969 -17.601562 C 10.132812 -17.28125 10.0625 -16.960938 10.027344 -16.640625 C 9.992188 -16.285156 9.992188 -16.039062 10.027344 -15.894531 C 10.242188 -15.964844 10.597656 -16.214844 11.058594 -16.605469 C 11.519531 -16.996094 11.949219 -17.351562 12.375 -17.742188 C 13.371094 -18.703125 14.402344 -19.558594 15.46875 -20.339844 C 16.535156 -21.121094 17.53125 -21.511719 18.492188 -21.511719 C 18.953125 -21.511719 19.308594 -21.40625 19.488281 -21.15625 C 19.664062 -20.910156 19.804688 -20.625 19.84375 -20.269531 C 19.878906 -19.878906 19.914062 -19.488281 19.914062 -19.09375 C 19.878906 -18.5625 19.914062 -18.027344 20.019531 -17.566406 C 20.125 -17.066406 20.339844 -16.675781 20.730469 -16.355469 C 21.121094 -16.039062 21.761719 -15.859375 22.652344 -15.859375 C 24.003906 -15.859375 25.496094 -16.25 27.097656 -17.03125 C 28.695312 -17.78125 30.191406 -18.5625 31.503906 -19.34375 C 32.003906 -19.628906 32.464844 -19.878906 32.925781 -20.125 C 33.105469 -20.234375 33.246094 -20.269531 33.425781 -20.234375 C 33.566406 -20.199219 33.675781 -20.089844 33.746094 -19.949219 C 33.78125 -19.769531 33.78125 -19.628906 33.710938 -19.449219 C 33.601562 -19.273438 33.496094 -19.167969 33.320312 -19.058594 C 32.890625 -18.847656 32.464844 -18.597656 32.003906 -18.347656 C 31.96875 -18.3125 31.96875 -18.3125 31.933594 -18.3125 C 31.007812 -17.78125 30.011719 -17.210938 28.910156 -16.675781 C 27.808594 -16.109375 26.703125 -15.609375 25.566406 -15.21875 C 24.429688 -14.828125 23.363281 -14.613281 22.332031 -14.613281 C 21.085938 -14.613281 20.234375 -14.863281 19.699219 -15.324219 C 19.167969 -15.789062 18.847656 -16.320312 18.738281 -16.960938 C 18.632812 -17.601562 18.5625 -18.207031 18.597656 -18.773438 C 18.597656 -19.34375 18.5625 -19.734375 18.527344 -19.949219 C 18.492188 -20.160156 18.347656 -20.269531 18.171875 -20.269531 C 17.496094 -20.269531 16.710938 -19.914062 15.789062 -19.203125 C 14.828125 -18.492188 13.9375 -17.742188 13.121094 -16.925781 C 12.375 -16.25 11.699219 -15.679688 11.128906 -15.253906 C 10.5625 -14.828125 10.0625 -14.613281 9.636719 -14.613281 C 9.210938 -14.613281 8.925781 -14.757812 8.820312 -15.042969 C 8.710938 -15.324219 8.675781 -15.679688 8.710938 -16.144531 C 8.746094 -16.570312 8.78125 -17.03125 8.890625 -17.496094 C 9.066406 -18.457031 9.175781 -19.128906 9.140625 -19.59375 C 9.101562 -20.054688 8.925781 -20.269531 8.570312 -20.269531 C 7.789062 -20.269531 6.71875 -19.769531 5.332031 -18.738281 C 3.945312 -17.707031 2.453125 -16.535156 0.851562 -15.183594 L 0.390625 -14.792969 C 0.355469 -14.757812 0.320312 -14.757812 0.285156 -14.722656 C 0.105469 -14.613281 -0.0351562 -14.578125 -0.179688 -14.578125 Z M -0.179688 -14.578125 "/></g></g></g><g fill="#000" fill-opacity="1"><g transform="translate(318.852189, 246.542636)"><g><path d="M 2.808594 -20.269531 C 2.597656 -20.269531 2.382812 -20.199219 2.167969 -20.089844 C 1.671875 -19.769531 1.28125 -19.308594 0.960938 -18.632812 C 0.640625 -17.957031 0.460938 -17.316406 0.460938 -16.710938 C 0.460938 -16.535156 0.496094 -16.320312 0.605469 -16.109375 C 0.675781 -15.894531 0.816406 -15.789062 1.066406 -15.789062 C 1.457031 -15.789062 1.992188 -16.179688 2.597656 -16.960938 C 3.199219 -17.707031 3.804688 -18.5625 4.375 -19.449219 C 4.160156 -19.628906 3.910156 -19.84375 3.664062 -20.019531 C 3.414062 -20.199219 3.128906 -20.269531 2.808594 -20.269531 Z M 6.648438 -21.191406 C 6.683594 -21.050781 6.613281 -20.765625 6.472656 -20.304688 C 6.082031 -19.128906 5.9375 -18.136719 6.046875 -17.386719 C 6.152344 -16.605469 6.757812 -16.109375 7.894531 -15.929688 C 10.347656 -15.539062 13.691406 -16.785156 17.992188 -19.699219 C 18.171875 -19.804688 18.347656 -19.84375 18.527344 -19.84375 C 18.667969 -19.804688 18.773438 -19.734375 18.882812 -19.59375 C 18.953125 -19.449219 18.953125 -19.308594 18.917969 -19.128906 C 18.847656 -18.953125 18.738281 -18.8125 18.5625 -18.703125 C 14.507812 -15.964844 11.128906 -14.578125 8.464844 -14.578125 C 8.070312 -14.578125 7.714844 -14.613281 7.359375 -14.6875 C 6.1875 -14.898438 5.441406 -15.324219 5.121094 -15.964844 C 4.800781 -16.570312 4.660156 -17.210938 4.730469 -17.921875 C 4.550781 -17.707031 4.410156 -17.496094 4.265625 -17.28125 C 3.699219 -16.464844 3.128906 -15.824219 2.523438 -15.289062 C 1.921875 -14.757812 1.351562 -14.507812 0.746094 -14.507812 C -0.214844 -14.507812 -0.746094 -15.148438 -0.816406 -16.394531 C -0.851562 -17.210938 -0.605469 -18.097656 -0.140625 -19.058594 C 0.320312 -19.984375 0.996094 -20.695312 1.8125 -21.15625 C 2.203125 -21.40625 2.703125 -21.511719 3.308594 -21.511719 C 3.875 -21.511719 4.480469 -21.230469 5.15625 -20.660156 C 5.261719 -20.835938 5.371094 -20.980469 5.476562 -21.121094 C 5.582031 -21.300781 5.726562 -21.40625 5.902344 -21.476562 C 6.082031 -21.546875 6.222656 -21.546875 6.402344 -21.476562 C 6.542969 -21.441406 6.613281 -21.335938 6.648438 -21.191406 Z M 6.648438 -21.191406 "/></g></g></g><g fill="#000" fill-opacity="1"><g transform="translate(336.737266, 246.542636)"><g><path d="M -0.496094 -14.578125 C -0.605469 -14.578125 -0.710938 -14.613281 -0.78125 -14.648438 C -0.890625 -14.722656 -0.960938 -14.828125 -0.996094 -14.96875 C -1.03125 -15.113281 -1.03125 -15.363281 -0.960938 -15.679688 C -0.925781 -16 -0.78125 -16.5 -0.605469 -17.140625 C -0.425781 -17.742188 -0.214844 -18.5625 0.105469 -19.59375 L 0.535156 -20.945312 C 0.570312 -21.121094 0.675781 -21.265625 0.851562 -21.371094 C 0.996094 -21.476562 1.136719 -21.546875 1.316406 -21.546875 C 1.492188 -21.511719 1.636719 -21.441406 1.742188 -21.335938 C 1.8125 -21.230469 1.8125 -21.050781 1.777344 -20.875 L 1.351562 -19.523438 C 0.960938 -18.277344 0.675781 -17.210938 0.425781 -16.355469 C 0.496094 -16.394531 0.570312 -16.429688 0.640625 -16.464844 C 1.671875 -17.175781 2.808594 -17.921875 4.054688 -18.703125 C 5.296875 -19.449219 6.507812 -20.125 7.679688 -20.695312 C 8.855469 -21.265625 9.886719 -21.546875 10.738281 -21.546875 C 11.199219 -21.546875 11.558594 -21.40625 11.804688 -21.15625 C 12.019531 -20.910156 12.160156 -20.554688 12.269531 -20.160156 C 12.339844 -19.769531 12.375 -19.34375 12.410156 -18.953125 C 12.445312 -18.417969 12.550781 -17.921875 12.660156 -17.460938 C 12.765625 -16.996094 12.980469 -16.605469 13.300781 -16.320312 C 13.617188 -16 14.1875 -15.859375 14.933594 -15.859375 C 16.535156 -15.859375 18.027344 -16.214844 19.414062 -16.925781 C 20.800781 -17.601562 22.152344 -18.417969 23.503906 -19.34375 L 24.179688 -19.734375 C 24.359375 -19.84375 24.5 -19.914062 24.679688 -19.878906 C 24.855469 -19.84375 24.960938 -19.769531 25.035156 -19.628906 C 25.105469 -19.488281 25.105469 -19.34375 25.035156 -19.167969 C 24.960938 -18.988281 24.855469 -18.847656 24.679688 -18.738281 L 24.039062 -18.347656 C 23.078125 -17.707031 22.117188 -17.105469 21.121094 -16.570312 C 20.125 -16 19.09375 -15.539062 18.027344 -15.183594 C 16.925781 -14.792969 15.789062 -14.613281 14.578125 -14.613281 C 13.546875 -14.613281 12.765625 -14.828125 12.304688 -15.253906 C 11.839844 -15.679688 11.519531 -16.179688 11.378906 -16.785156 C 11.238281 -17.386719 11.164062 -17.957031 11.128906 -18.527344 C 11.09375 -19.128906 11.023438 -19.59375 10.917969 -19.878906 C 10.808594 -20.125 10.632812 -20.269531 10.382812 -20.269531 C 9.707031 -20.269531 8.820312 -19.984375 7.714844 -19.449219 C 6.613281 -18.917969 5.476562 -18.277344 4.300781 -17.53125 C 3.128906 -16.785156 2.0625 -16.109375 1.171875 -15.503906 C 0.710938 -15.21875 0.320312 -14.96875 -0.0351562 -14.722656 C -0.214844 -14.613281 -0.355469 -14.578125 -0.496094 -14.578125 Z M -0.496094 -14.578125 "/></g></g></g></svg>