<svg id="visual" viewBox="0 0 900 600" width="900" height="600" xmlns="http://www.w3.org/2000/svg" xmlns:xlink="http://www.w3.org/1999/xlink" version="1.1"><g stroke-width="1" stroke-linejoin="bevel"><path d="M462 269L395 284L430 370Z" fill="#fff4f4" stroke="#fff4f4"></path><path d="M430 370L479 432L462 269Z" fill="#fffcfc" stroke="#fffcfc"></path><path d="M395 284L304 336L430 370Z" fill="#fff4f4" stroke="#fff4f4"></path><path d="M430 370L412 524L479 432Z" fill="#fff6f6" stroke="#fff6f6"></path><path d="M462 269L361 192L395 284Z" fill="#fffbfb" stroke="#fffbfb"></path><path d="M395 284L361 192L304 336Z" fill="#fff8f8" stroke="#fff8f8"></path><path d="M577 204L510 161L462 269Z" fill="#fff6f6" stroke="#fff6f6"></path><path d="M462 269L510 161L361 192Z" fill="#fff3f3" stroke="#fff3f3"></path><path d="M304 336L282 396L430 370Z" fill="#fff3f3" stroke="#fff3f3"></path><path d="M634 288L577 204L462 269Z" fill="#fff7f7" stroke="#fff7f7"></path><path d="M510 161L378 137L361 192Z" fill="#ffffff" stroke="#ffffff"></path><path d="M361 192L311 169L304 336Z" fill="#fff7f7" stroke="#fff7f7"></path><path d="M479 432L597 428L462 269Z" fill="#fff2f2" stroke="#fff2f2"></path><path d="M378 137L311 169L361 192Z" fill="#fff4f4" stroke="#fff4f4"></path><path d="M208 327L227 405L282 396Z" fill="#fff6f6" stroke="#fff6f6"></path><path d="M597 428L634 288L462 269Z" fill="#fffcfc" stroke="#fffcfc"></path><path d="M572 68L507 120L510 161Z" fill="#fff7f7" stroke="#fff7f7"></path><path d="M510 161L507 120L378 137Z" fill="#fff8f8" stroke="#fff8f8"></path><path d="M288 484L412 524L430 370Z" fill="#fffcfc" stroke="#fffcfc"></path><path d="M479 432L593 473L597 428Z" fill="#fff4f4" stroke="#fff4f4"></path><path d="M521 529L593 473L479 432Z" fill="#fff2f2" stroke="#fff2f2"></path><path d="M679 410L663 290L634 288Z" fill="#fffefe" stroke="#fffefe"></path><path d="M282 396L288 484L430 370Z" fill="#fff2f2" stroke="#fff2f2"></path><path d="M679 410L634 288L597 428Z" fill="#fff9f9" stroke="#fff9f9"></path><path d="M634 288L693 179L577 204Z" fill="#fff2f2" stroke="#fff2f2"></path><path d="M577 204L572 68L510 161Z" fill="#fffefe" stroke="#fffefe"></path><path d="M412 524L521 529L479 432Z" fill="#fff7f7" stroke="#fff7f7"></path><path d="M208 327L282 396L304 336Z" fill="#fff9f9" stroke="#fff9f9"></path><path d="M282 396L227 405L288 484Z" fill="#fff9f9" stroke="#fff9f9"></path><path d="M311 169L208 327L304 336Z" fill="#fff2f2" stroke="#fff2f2"></path><path d="M713 501L679 410L593 473Z" fill="#fff7f7" stroke="#fff7f7"></path><path d="M593 473L679 410L597 428Z" fill="#fff9f9" stroke="#fff9f9"></path><path d="M378 137L328 72L311 169Z" fill="#fffcfc" stroke="#fffcfc"></path><path d="M311 169L161 193L208 327Z" fill="#fffefe" stroke="#fffefe"></path><path d="M406 0L328 72L378 137Z" fill="#fff7f7" stroke="#fff7f7"></path><path d="M693 179L572 68L577 204Z" fill="#fff6f6" stroke="#fff6f6"></path><path d="M507 120L406 0L378 137Z" fill="#fffefe" stroke="#fffefe"></path><path d="M412 524L469 600L521 529Z" fill="#fff4f4" stroke="#fff4f4"></path><path d="M635 600L713 501L593 473Z" fill="#fff9f9" stroke="#fff9f9"></path><path d="M400 600L469 600L412 524Z" fill="#fffbfb" stroke="#fffbfb"></path><path d="M333 600L400 600L412 524Z" fill="#fffbfb" stroke="#fffbfb"></path><path d="M99 463L205 485L227 405Z" fill="#fffefe" stroke="#fffefe"></path><path d="M227 405L205 485L288 484Z" fill="#fff9f9" stroke="#fff9f9"></path><path d="M288 484L333 600L412 524Z" fill="#fff6f6" stroke="#fff6f6"></path><path d="M663 290L693 179L634 288Z" fill="#fffcfc" stroke="#fffcfc"></path><path d="M785 211L693 179L663 290Z" fill="#fff4f4" stroke="#fff4f4"></path><path d="M209 600L333 600L288 484Z" fill="#fff4f4" stroke="#fff4f4"></path><path d="M189 61L161 193L311 169Z" fill="#fff2f2" stroke="#fff2f2"></path><path d="M208 327L69 407L227 405Z" fill="#fff6f6" stroke="#fff6f6"></path><path d="M510 0L406 0L507 120Z" fill="#fff3f3" stroke="#fff3f3"></path><path d="M328 72L189 61L311 169Z" fill="#fff8f8" stroke="#fff8f8"></path><path d="M572 68L510 0L507 120Z" fill="#fffcfc" stroke="#fffcfc"></path><path d="M581 0L510 0L572 68Z" fill="#fff3f3" stroke="#fff3f3"></path><path d="M635 600L593 473L521 529Z" fill="#fffbfb" stroke="#fffbfb"></path><path d="M679 410L796 329L663 290Z" fill="#fff2f2" stroke="#fff2f2"></path><path d="M115 224L104 312L208 327Z" fill="#fff2f2" stroke="#fff2f2"></path><path d="M109 104L115 224L161 193Z" fill="#fffefe" stroke="#fffefe"></path><path d="M161 193L115 224L208 327Z" fill="#fff9f9" stroke="#fff9f9"></path><path d="M784 134L711 112L693 179Z" fill="#fffbfb" stroke="#fffbfb"></path><path d="M693 179L711 112L572 68Z" fill="#fff9f9" stroke="#fff9f9"></path><path d="M469 600L635 600L521 529Z" fill="#fff2f2" stroke="#fff2f2"></path><path d="M728 0L581 0L572 68Z" fill="#fff7f7" stroke="#fff7f7"></path><path d="M406 0L286 0L328 72Z" fill="#fff3f3" stroke="#fff3f3"></path><path d="M286 0L189 61L328 72Z" fill="#fff8f8" stroke="#fff8f8"></path><path d="M794 428L796 329L679 410Z" fill="#fff3f3" stroke="#fff3f3"></path><path d="M796 329L785 211L663 290Z" fill="#fff2f2" stroke="#fff2f2"></path><path d="M205 485L209 600L288 484Z" fill="#fffefe" stroke="#fffefe"></path><path d="M99 463L209 600L205 485Z" fill="#fff9f9" stroke="#fff9f9"></path><path d="M69 407L99 463L227 405Z" fill="#fffbfb" stroke="#fffbfb"></path><path d="M783 536L794 428L713 501Z" fill="#fff6f6" stroke="#fff6f6"></path><path d="M713 501L794 428L679 410Z" fill="#fff4f4" stroke="#fff4f4"></path><path d="M104 312L69 407L208 327Z" fill="#fff3f3" stroke="#fff3f3"></path><path d="M0 322L69 407L104 312Z" fill="#fff2f2" stroke="#fff2f2"></path><path d="M189 61L109 104L161 193Z" fill="#fff9f9" stroke="#fff9f9"></path><path d="M0 231L0 322L104 312Z" fill="#fff4f4" stroke="#fff4f4"></path><path d="M94 0L109 104L189 61Z" fill="#fffefe" stroke="#fffefe"></path><path d="M900 189L784 134L785 211Z" fill="#fff7f7" stroke="#fff7f7"></path><path d="M785 211L784 134L693 179Z" fill="#fffefe" stroke="#fffefe"></path><path d="M711 112L728 0L572 68Z" fill="#fff7f7" stroke="#fff7f7"></path><path d="M635 600L729 600L713 501Z" fill="#fff7f7" stroke="#fff7f7"></path><path d="M729 600L783 536L713 501Z" fill="#fff4f4" stroke="#fff4f4"></path><path d="M286 0L176 0L189 61Z" fill="#fffefe" stroke="#fffefe"></path><path d="M784 134L728 0L711 112Z" fill="#fff3f3" stroke="#fff3f3"></path><path d="M0 231L104 312L115 224Z" fill="#fff3f3" stroke="#fff3f3"></path><path d="M69 407L0 436L99 463Z" fill="#fffefe" stroke="#fffefe"></path><path d="M0 104L115 224L109 104Z" fill="#fff8f8" stroke="#fff8f8"></path><path d="M0 104L0 231L115 224Z" fill="#fff7f7" stroke="#fff7f7"></path><path d="M0 322L0 436L69 407Z" fill="#fff4f4" stroke="#fff4f4"></path><path d="M99 463L62 600L209 600Z" fill="#fff6f6" stroke="#fff6f6"></path><path d="M900 397L900 317L796 329Z" fill="#fff8f8" stroke="#fff8f8"></path><path d="M796 329L900 317L785 211Z" fill="#fff9f9" stroke="#fff9f9"></path><path d="M784 134L809 0L728 0Z" fill="#ffffff" stroke="#ffffff"></path><path d="M900 397L796 329L794 428Z" fill="#fff2f2" stroke="#fff2f2"></path><path d="M176 0L94 0L189 61Z" fill="#fff9f9" stroke="#fff9f9"></path><path d="M729 600L810 600L783 536Z" fill="#fff2f2" stroke="#fff2f2"></path><path d="M900 466L900 397L794 428Z" fill="#fff7f7" stroke="#fff7f7"></path><path d="M900 466L794 428L783 536Z" fill="#fffbfb" stroke="#fffbfb"></path><path d="M0 491L62 600L99 463Z" fill="#fff4f4" stroke="#fff4f4"></path><path d="M0 436L0 491L99 463Z" fill="#fff9f9" stroke="#fff9f9"></path><path d="M900 317L900 189L785 211Z" fill="#fff3f3" stroke="#fff3f3"></path><path d="M900 600L900 466L783 536Z" fill="#fff9f9" stroke="#fff9f9"></path><path d="M94 0L0 104L109 104Z" fill="#fffefe" stroke="#fffefe"></path><path d="M900 121L809 0L784 134Z" fill="#ffffff" stroke="#ffffff"></path><path d="M900 189L900 121L784 134Z" fill="#fffbfb" stroke="#fffbfb"></path><path d="M0 491L0 600L62 600Z" fill="#fff2f2" stroke="#fff2f2"></path><path d="M94 0L0 0L0 104Z" fill="#fff3f3" stroke="#fff3f3"></path><path d="M810 600L900 600L783 536Z" fill="#ffffff" stroke="#ffffff"></path><path d="M900 121L900 0L809 0Z" fill="#fff9f9" stroke="#fff9f9"></path></g></svg>